<?xml version="1.0" encoding="utf-8"?>
<!-- Generator: Adobe Illustrator 24.3.0, SVG Export Plug-In . SVG Version: 6.00 Build 0)  -->
<svg version="1.1" id="svg6238" xmlns="http://www.w3.org/2000/svg" xmlns:xlink="http://www.w3.org/1999/xlink" x="0px" y="0px"
	 viewBox="0 0 20.5 22" style="enable-background:new 0 0 20.5 22;" xml:space="preserve">
<style type="text/css">
	.st9{fill:#FFFFFF;}
	.st10{fill:#E7242D;}
</style>
<sodipodiNamedview  bordercolor="#666666" borderopacity="1" gridtolerance="10" guidetolerance="10" id="namedview7" inkscapeCurrentLayer="svg6238" inkscapeCx="34.723839" inkscapeCy="1.002999" inkscapePageopacity="0" inkscapePageshadow="2" inkscapeShowpageshadow="false" inkscapeWindowHeight="705" inkscapeWindowMaximized="1" inkscapeWindowWidth="1366" inkscapeWindowX="-8" inkscapeWindowY="-8" inkscapeZoom="1" objecttolerance="10" pagecolor="#ffffff" showgrid="false">
	</sodipodiNamedview>
<path id="path4663-0" class="st9" d="M13.1,1.5l5.4,4.3l-4.8,0.9l-3-3.1L2.5,4.8L1.8,3L13.1,1.5z M10.8,6.9l2.8,3.5l-4.5,1L8,9.5
	l-4.2,0.8L3,8.3L10.8,6.9z M8.3,13.2l1,2l-4.2,1L4.4,14L8.3,13.2z"/>
<path id="path4663-0_1_" class="st10" d="M13.4,0.2L0.3,1.9V2l1.9,11.3l2.7,8.4l13.8-3.9l1.4-12.3L13.4,0.2z M13.1,1.5l5.4,4.3
	l-4.8,0.9l-3-3.1L2.5,4.8L1.8,3L13.1,1.5z M10.8,6.9l2.8,3.5l-4.5,1L8,9.5l-4.2,0.8L3,8.3L10.8,6.9z M8.3,13.2l1,2l-4.2,1L4.4,14
	L8.3,13.2z"/>
</svg>
