<?xml version="1.0" encoding="utf-8"?>
<!-- Generator: Adobe Illustrator 24.3.0, SVG Export Plug-In . SVG Version: 6.00 Build 0)  -->
<svg version="1.1" id="Layer_1" xmlns="http://www.w3.org/2000/svg" xmlns:xlink="http://www.w3.org/1999/xlink" x="0px" y="0px"
	 viewBox="0 0 263.4 294.6" style="enable-background:new 0 0 263.4 294.6;" xml:space="preserve">
<style type="text/css">
	.st0{fill:#FF2121;fill-opacity:0.4;}
	.st1{fill:#FF2121;fill-opacity:0.52;}
	.st2{fill:#FF2121;fill-opacity:0.77;}
	.st3{fill:#FF2121;fill-opacity:0.83;}
	.st4{fill:#FF2121;fill-opacity:0.93;}
	.st5{fill:#FF2121;fill-opacity:0.9;}
	.st6{fill:#FF2121;fill-opacity:0.78;}
	.st7{fill:#FF2121;fill-opacity:0.63;}
	.st8{fill:#FF2121;fill-opacity:0.86;}
</style>
<path class="st0" d="M263.4,73.7L131.7,0v73.7l65.8,36.8L263.4,73.7z"/>
<path class="st1" d="M0,73.7L131.7,0v73.7l-65.8,36.8L0,73.7z"/>
<path class="st2" d="M197.6,110.5l-65.8,36.8V73.7L197.6,110.5z"/>
<path class="st3" d="M65.9,110.5l65.8,36.8V73.7L65.9,110.5z"/>
<path class="st4" d="M131.7,221v-73.7l65.8,36.8L131.7,221L131.7,221z"/>
<path class="st5" d="M131.7,221v-73.7l-65.8,36.8L131.7,221z"/>
<path class="st6" d="M131.7,294.6V221l-65.8-36.8L0,221L131.7,294.6z"/>
<path class="st7" d="M263.4,147.3V221l-65.9-36.8L263.4,147.3z"/>
<path class="st7" d="M0,147.3V221l65.9-36.8L0,147.3z"/>
<path class="st8" d="M263.4,147.3l-65.9-36.8l-65.9,36.8l65.9,36.8L263.4,147.3z"/>
<path class="st8" d="M0,147.3l65.9-36.8l65.9,36.8l-65.9,36.8L0,147.3z"/>
<path class="st7" d="M263.4,73.7v73.7l-65.9-36.8L263.4,73.7z"/>
<path class="st7" d="M0,73.7v73.7l65.9-36.8L0,73.7z"/>
<path class="st3" d="M131.7,294.6V221l65.8-36.8l65.9,36.8L131.7,294.6L131.7,294.6z"/>
</svg>
